# This file uses centimeters as units for non-parametric coordinates.

mtllib flowerbox.mtl
g default
v -1.000000 0.000000 -1.000000
v -1.000000 0.000000 -2.000000
v 1.000000 0.000000 -2.000000
v 1.000000 0.000000 -1.000000
v 1.000000 0.000000 1.000000
v 2.000000 0.000000 -1.000000
v 2.000000 0.000000 1.000000
v 1.000000 0.000000 2.000000
v -1.000000 0.000000 2.000000
v -1.000000 0.000000 1.000000
v -1.000000 -1.000000 -1.000000
v -1.000000 -1.000000 1.000000
v -1.000000 0.000000 0.000000
v 1.000000 -1.000000 1.000000
v 1.000000 -1.000000 -1.000000
v 1.000000 1.000000 -1.000000
v 1.000000 2.000000 -1.000000
v 2.000000 2.000000 -1.000000
v 0.000000 2.000000 -1.000000
v -1.000000 2.000000 -1.000000
v -1.000000 3.000000 -1.000000
v 1.000000 3.000000 -1.000000
v 1.000000 2.000000 -2.000000
v -1.000000 2.000000 -2.000000
v 1.000000 2.000000 1.000000
v 1.000000 3.000000 1.000000
v -1.000000 3.000000 1.000000
v -1.000000 2.000000 1.000000
v 0.000000 2.000000 1.000000
v -1.000000 2.000000 2.000000
v 1.000000 2.000000 2.000000
v 2.000000 2.000000 1.000000
v 1.000000 1.000000 1.000000
v 1.000000 2.000000 0.000000
v -2.000000 2.000000 1.000000
v -2.000000 0.000000 1.000000
v -1.000000 1.000000 1.000000
v -2.000000 2.000000 -1.000000
v -2.000000 0.000000 -1.000000
v -1.000000 1.000000 -1.000000
vt 0.375000 0.250000
vt 0.625000 0.250000
vt 0.375000 0.500000
vt 0.625000 0.500000
vt 0.375000 0.000000
vt 0.625000 0.000000
vt 0.375000 0.250000
vt 0.625000 0.250000
vt 0.750000 0.375000
vt 1.000000 0.375000
vt 0.625000 0.000000
vt 0.625000 0.250000
vt 0.625000 0.500000
vt 0.625000 0.750000
vt 0.875000 0.000000
vt 0.875000 0.250000
vt 0.750000 0.250000
vt 0.750000 0.250000
vt 0.500000 0.375000
vt 0.250000 0.375000
vt 0.500000 0.250000
vt 0.500000 0.250000
vt 0.500000 0.375000
vt 0.625000 0.375000
vt 0.500000 0.125000
vt 0.625000 0.125000
vt 0.375000 0.500000
vt 0.625000 0.500000
vt 0.375000 0.750000
vt 0.625000 0.750000
vt 0.875000 0.000000
vt 0.875000 0.250000
vt 0.125000 0.000000
vt 0.125000 0.250000
vt 0.500000 0.500000
vt 0.500000 0.750000
vt 0.500000 0.500000
vt 0.250000 0.375000
vt 0.500000 0.375000
vt 0.625000 0.250000
vt 0.625000 0.000000
vt 0.750000 0.250000
vt 0.750000 0.000000
vt 0.375000 1.250000
vt 0.625000 1.250000
vt 0.750000 1.125000
vt 0.750000 0.875000
vt 0.625000 0.875000
vt 0.625000 0.375000
vt 0.500000 0.375000
vt 0.500000 0.500000
vt 1.000000 0.250000
vt 0.875000 0.250000
vt 0.375000 0.000000
vt 0.375000 0.250000
vt 0.375000 0.500000
vt 0.375000 0.750000
vt 0.375000 1.000000
vt 0.125000 0.000000
vt 0.125000 0.250000
vt 0.500000 0.250000
vt 0.250000 0.250000
vt 0.500000 0.000000
vt 0.500000 0.250000
vt 0.250000 0.000000
vt 0.250000 0.250000
vt 0.500000 0.875000
vt 0.500000 0.750000
vt 0.500000 1.000000
vt 0.500000 0.500000
vt 0.500000 0.750000
vt 0.500000 0.250000
vt 0.500000 0.500000
vt 0.500000 0.000000
vt 0.500000 0.250000
vt 0.375000 0.375000
vt 0.375000 0.125000
vt 0.500000 0.375000
vt 0.375000 0.375000
vt 0.375000 1.125000
vt 0.375000 0.875000
vt 0.250000 0.500000
vt 0.375000 0.500000
vt 0.375000 0.000000
vt 0.625000 0.000000
vt 0.375000 0.750000
vt 0.625000 0.750000
vt 0.375000 1.000000
vt 0.625000 1.000000
vt 0.875000 0.000000
vt 0.125000 0.000000
vt 0.625000 1.125000
vt 0.625000 1.125000
vt 0.250000 0.125000
vt 0.375000 0.125000
vt 0.125000 0.125000
vt 0.875000 0.125000
vt 0.625000 0.125000
vt 0.375000 0.625000
vt 0.625000 0.625000
vt 0.625000 0.125000
vt 0.375000 0.125000
vt 0.500000 0.625000
vt 0.750000 0.125000
vt 0.500000 0.125000
vt 0.500000 0.000000
vt 0.750000 0.000000
vt 0.750000 0.125000
vt 0.500000 0.125000
vt 0.500000 0.625000
vt 0.250000 0.125000
vt 0.500000 0.125000
vn 0.000000 -1.000000 0.000000
vn 0.000000 -1.000000 0.000000
vn 0.000000 -1.000000 0.000000
vn 0.000000 -1.000000 0.000000
vn 0.000000 -1.000000 0.000000
vn 0.000000 -1.000000 0.000000
vn 0.000000 -1.000000 0.000000
vn 0.000000 -1.000000 0.000000
vn 0.000000 -1.000000 0.000000
vn 0.000000 -1.000000 0.000000
vn 0.000000 -1.000000 0.000000
vn 0.000000 -1.000000 0.000000
vn -1.000000 0.000000 0.000000
vn -1.000000 0.000000 0.000000
vn -1.000000 0.000000 0.000000
vn -1.000000 0.000000 0.000000
vn -1.000000 0.000000 0.000000
vn 1.000000 0.000000 0.000000
vn 1.000000 0.000000 0.000000
vn 1.000000 0.000000 0.000000
vn 1.000000 0.000000 0.000000
vn 0.000000 -1.000000 0.000000
vn 0.000000 -1.000000 0.000000
vn 0.000000 -1.000000 0.000000
vn 0.000000 -1.000000 0.000000
vn 0.000000 0.000000 -1.000000
vn 0.000000 0.000000 -1.000000
vn 0.000000 0.000000 -1.000000
vn 0.000000 0.000000 -1.000000
vn 0.000000 0.000000 1.000000
vn 0.000000 0.000000 1.000000
vn 0.000000 0.000000 1.000000
vn 0.000000 0.000000 1.000000
vn 0.000000 0.000000 -1.000000
vn 0.000000 0.000000 -1.000000
vn 0.000000 0.000000 -1.000000
vn 0.000000 0.000000 -1.000000
vn 0.000000 0.000000 -1.000000
vn 0.000000 0.000000 -1.000000
vn 0.000000 0.000000 -1.000000
vn 0.000000 0.000000 -1.000000
vn 0.000000 0.000000 -1.000000
vn 0.000000 0.000000 -1.000000
vn 1.000000 0.000000 0.000000
vn 1.000000 0.000000 0.000000
vn 1.000000 0.000000 0.000000
vn 1.000000 0.000000 0.000000
vn 1.000000 0.000000 0.000000
vn 0.000000 0.000000 -1.000000
vn 0.000000 0.000000 -1.000000
vn 0.000000 0.000000 -1.000000
vn 0.000000 0.000000 -1.000000
vn 0.000000 1.000000 0.000000
vn 0.000000 1.000000 0.000000
vn 0.000000 1.000000 0.000000
vn 0.000000 1.000000 0.000000
vn 0.000000 1.000000 0.000000
vn 0.000000 0.000000 1.000000
vn 0.000000 0.000000 1.000000
vn 0.000000 0.000000 1.000000
vn 0.000000 0.000000 1.000000
vn 0.000000 0.000000 1.000000
vn 0.000000 1.000000 0.000000
vn 0.000000 1.000000 0.000000
vn 0.000000 1.000000 0.000000
vn 0.000000 1.000000 0.000000
vn 0.000000 1.000000 0.000000
vn 0.000000 0.000000 1.000000
vn 0.000000 0.000000 1.000000
vn 0.000000 0.000000 1.000000
vn 0.000000 0.000000 1.000000
vn 0.000000 1.000000 0.000000
vn 0.000000 1.000000 0.000000
vn 0.000000 1.000000 0.000000
vn 0.000000 1.000000 0.000000
vn 0.000000 0.000000 1.000000
vn 0.000000 0.000000 1.000000
vn 0.000000 0.000000 1.000000
vn 0.000000 0.000000 1.000000
vn 0.000000 0.000000 1.000000
vn 0.000000 1.000000 0.000000
vn 0.000000 1.000000 0.000000
vn 0.000000 1.000000 0.000000
vn 0.000000 1.000000 0.000000
vn 0.000000 1.000000 0.000000
vn 1.000000 0.000000 0.000000
vn 1.000000 0.000000 0.000000
vn 1.000000 0.000000 0.000000
vn 1.000000 0.000000 0.000000
vn 1.000000 0.000000 0.000000
vn 1.000000 0.000000 0.000000
vn 1.000000 0.000000 0.000000
vn 1.000000 0.000000 0.000000
vn 1.000000 0.000000 0.000000
vn 1.000000 0.000000 0.000000
vn 1.000000 0.000000 0.000000
vn 1.000000 0.000000 0.000000
vn 1.000000 0.000000 0.000000
vn 1.000000 0.000000 0.000000
vn 0.000000 0.000000 1.000000
vn 0.000000 0.000000 1.000000
vn 0.000000 0.000000 1.000000
vn 0.000000 0.000000 1.000000
vn 0.000000 0.000000 1.000000
vn 0.000000 1.000000 0.000000
vn 0.000000 1.000000 0.000000
vn 0.000000 1.000000 0.000000
vn 0.000000 1.000000 0.000000
vn 0.000000 0.000000 -1.000000
vn 0.000000 0.000000 -1.000000
vn 0.000000 0.000000 -1.000000
vn 0.000000 0.000000 -1.000000
vn 0.000000 0.000000 -1.000000
vn 0.000000 -1.000000 0.000000
vn 0.000000 -1.000000 0.000000
vn 0.000000 -1.000000 0.000000
vn 0.000000 -1.000000 0.000000
vn 0.000000 -1.000000 0.000000
vn -1.000000 0.000000 0.000000
vn -1.000000 0.000000 0.000000
vn -1.000000 0.000000 0.000000
vn -1.000000 0.000000 0.000000
vn -1.000000 0.000000 0.000000
vn -1.000000 0.000000 0.000000
vn -1.000000 0.000000 0.000000
vn -1.000000 0.000000 0.000000
vn -1.000000 0.000000 0.000000
vn -1.000000 0.000000 0.000000
vn -1.000000 0.000000 0.000000
vn -1.000000 0.000000 0.000000
vn -1.000000 0.000000 0.000000
vn -1.000000 0.000000 0.000000
vn -1.000000 0.000000 0.000000
vn -1.000000 0.000000 0.000000
vn -1.000000 0.000000 0.000000
vn -1.000000 0.000000 0.000000
s 1
g polySurface5
usemtl phong3SG
f 1/81/1 2/29/2 4/48/3
f 4/48/3 2/29/2 3/30/4
s 2
f 5/92/5 4/48/6 7/46/7
f 7/46/7 4/48/6 6/47/8
s 3
f 5/93/9 8/45/10 10/80/11
f 10/80/11 8/45/10 9/44/12
s 4
usemtl phong4SG
f 1/96/13 11/91/14 13/94/15
f 11/91/14 12/84/16 13/94/15
f 12/84/16 10/95/17 13/94/15
s 5
f 5/98/18 14/85/19 4/97/20
f 4/97/20 14/85/19 15/90/21
s 6
f 11/86/22 15/87/23 12/88/24
f 12/88/24 15/87/23 14/89/25
s 7
f 4/100/26 15/87/27 1/99/28
f 1/99/28 15/87/27 11/86/29
s 8
f 10/102/30 12/84/31 5/101/32
f 5/101/32 12/84/31 14/85/33
s 9
usemtl initialShadingGroup
f 4/36/34 16/103/35 6/14/36
f 6/14/36 16/103/35 18/13/37
f 16/103/35 17/35/38 18/13/37
s 10
f 20/82/39 21/20/40 19/83/41
f 21/20/40 22/19/42 19/83/41
f 19/83/41 22/19/42 17/37/43
s 11
usemtl phong3SG
f 4/43/44 3/31/45 16/104/46
f 3/31/45 23/32/47 16/104/46
f 23/32/47 17/42/48 16/104/46
s 12
f 24/27/49 23/28/50 2/29/51
f 2/29/51 23/28/50 3/30/52
s 13
f 17/49/53 23/28/54 19/78/55
f 23/28/54 24/27/56 19/78/55
f 24/27/56 20/79/57 19/78/55
s 14
usemtl phong5SG
f 25/26/58 26/2/59 29/25/60
f 26/2/59 27/1/61 29/25/60
f 27/1/61 28/77/62 29/25/60
s 15
usemtl phong1SG
f 28/76/63 30/7/64 29/23/65
f 30/7/64 31/8/66 29/23/65
f 31/8/66 25/24/67 29/23/65
s 16
f 9/5/68 8/6/69 30/7/70
f 30/7/70 8/6/69 31/8/71
s 17
usemtl phong5SG
f 27/1/72 26/2/73 21/3/74
f 21/3/74 26/2/73 22/4/75
s 18
usemtl initialShadingGroup
f 5/106/76 7/11/77 33/105/78
f 7/11/77 32/12/79 33/105/78
f 32/12/79 25/22/80 33/105/78
s 19
f 25/21/81 32/12/82 34/50/83
f 32/12/82 18/13/84 34/50/83
f 18/13/84 17/51/85 34/50/83
s 20
f 7/11/86 6/15/87 32/12/88
f 32/12/88 6/15/87 18/16/89
s 21
usemtl phong1SG
f 17/52/90 22/10/91 34/53/92
f 22/10/91 26/9/93 34/53/92
f 34/53/92 26/9/93 25/18/94
s 22
f 25/17/95 31/8/96 33/108/97
f 31/8/96 8/6/98 33/108/97
f 33/108/97 8/6/98 5/107/99
s 23
usemtl phong2SG
f 28/75/100 35/55/101 37/109/102
f 35/55/101 36/54/103 37/109/102
f 36/54/103 10/74/104 37/109/102
s 24
f 20/73/105 38/56/106 28/72/107
f 28/72/107 38/56/106 35/55/108
s 25
f 1/71/109 39/57/110 40/110/111
f 39/57/110 38/56/112 40/110/111
f 38/56/112 20/70/113 40/110/111
s 26
f 10/69/114 36/58/115 13/67/116
f 36/58/115 39/57/117 13/67/116
f 39/57/117 1/68/118 13/67/116
s 27
f 39/59/119 36/54/120 38/60/121
f 38/60/121 36/54/120 35/55/122
s 28
usemtl phong3SG
f 20/66/123 24/34/124 40/111/125
f 24/34/124 2/33/126 40/111/125
f 2/33/126 1/65/127 40/111/125
s 29
f 10/63/128 9/41/129 37/112/130
f 9/41/129 30/40/131 37/112/130
f 37/112/130 30/40/131 28/64/132
s 30
f 20/62/133 28/61/134 21/38/135
f 21/38/135 28/61/134 27/39/136
