# This file uses centimeters as units for non-parametric coordinates.

mtllib quadmaster.mtl
g default
v -0.500000 -0.000000 0.500000
v 0.500000 -0.000000 0.500000
v -0.500000 0.000000 -0.500000
v 0.500000 0.000000 -0.500000
vt 0.000000 0.000000
vt 1.000000 0.000000
vt 0.000000 1.000000
vt 1.000000 1.000000
vn 0.000000 1.000000 0.000000
vn 0.000000 1.000000 0.000000
vn 0.000000 1.000000 0.000000
vn 0.000000 1.000000 0.000000
s off
g pA groupMaster
usemtl lambert2SG
f 1/1/1 2/2/2 4/4/3 3/3/4
g default
v 1.500000 -0.000000 0.500000
v 2.500000 -0.000000 0.500000
v 1.500000 0.000000 -0.500000
v 2.500000 0.000000 -0.500000
vt 0.000000 0.000000
vt 1.000000 0.000000
vt 0.000000 1.000000
vt 1.000000 1.000000
vn 0.000000 1.000000 0.000000
vn 0.000000 1.000000 0.000000
vn 0.000000 1.000000 0.000000
vn 0.000000 1.000000 0.000000
s off
g groupMaster pB
usemtl lambert3SG
f 5/5/5 6/6/6 8/8/7 7/7/8
g default
v -0.500000 -0.000000 2.500000
v 0.500000 -0.000000 2.500000
v -0.500000 0.000000 1.500000
v 0.500000 0.000000 1.500000
vt 0.000000 0.000000
vt 1.000000 0.000000
vt 0.000000 1.000000
vt 1.000000 1.000000
vn 0.000000 1.000000 0.000000
vn 0.000000 1.000000 0.000000
vn 0.000000 1.000000 0.000000
vn 0.000000 1.000000 0.000000
s off
g groupMaster pPlane3
usemtl blinn1SG
f 9/9/9 10/10/10 12/12/11 11/11/12
g default
v 1.500000 -0.000000 2.500000
v 2.500000 -0.000000 2.500000
v 1.500000 0.000000 1.500000
v 2.500000 0.000000 1.500000
vt 0.000000 0.000000
vt 1.000000 0.000000
vt 0.000000 1.000000
vt 1.000000 1.000000
vn 0.000000 1.000000 0.000000
vn 0.000000 1.000000 0.000000
vn 0.000000 1.000000 0.000000
vn 0.000000 1.000000 0.000000
s off
g groupMaster pPlane4
usemtl blinn1SG
f 13/13/13 14/14/14 16/16/15 15/15/16
g default
v 1.500000 -0.000000 -1.500000
v 2.500000 -0.000000 -1.500000
v 1.500000 0.000000 -2.500000
v 2.500000 0.000000 -2.500000
vt 0.000000 0.000000
vt 1.000000 0.000000
vt 0.000000 1.000000
vt 1.000000 1.000000
vn 0.000000 1.000000 0.000000
vn 0.000000 1.000000 0.000000
vn 0.000000 1.000000 0.000000
vn 0.000000 1.000000 0.000000
s off
g groupMaster RedA groupRed
usemtl phong1SG
f 17/17/17 18/18/18 20/20/19 19/19/20
g default
v -0.500000 -0.000000 -1.500000
v 0.500000 -0.000000 -1.500000
v -0.500000 0.000000 -2.500000
v 0.500000 0.000000 -2.500000
vt 0.000000 0.000000
vt 1.000000 0.000000
vt 0.000000 1.000000
vt 1.000000 1.000000
vn 0.000000 1.000000 0.000000
vn 0.000000 1.000000 0.000000
vn 0.000000 1.000000 0.000000
vn 0.000000 1.000000 0.000000
s off
g groupMaster groupRed RedB
usemtl phong1SG
f 21/21/21 22/22/22 24/24/23 23/23/24
